# xmcd CD database file
#
# Track frame offsets:
#	150
#	12612
#	29430
#	42037
#	60750
#	72782
#
# Disc length: 1539 seconds
#
# Revision: 0
# Processed by: cddbd v1.5PL3 Copyright (c) Steve Scherf et al.
# Submitted via: CDex 1.51
#
DISCID=43060106
DTITLE=マキシマム・ザ・ホルモン - 延髄突き割る
DYEAR=2003
DGENRE=JPop
TTITLE0=ROLLING 1000tOON
TTITLE1=恋のスウィート糞メリケン
TTITLE2=フォーエバーHEY! HO! LET'S GO!〜ラモーンズに捧ぐ〜
TTITLE3=アバラ・ボブ(BAMBOOMAN Mix #2)
TTITLE4=secret track
TTITLE5=データトラック 06
EXTD=YEAR: 2003
EXTT0=
EXTT1=
EXTT2=
EXTT3=
EXTT4=
EXTT5=
PLAYORDER=
